<!DOCTYPE svg PUBLIC "-//W3C//DTD SVG 1.1//EN" "http://www.w3.org/Graphics/SVG/1.1/DTD/svg11.dtd">
<!-- Uploaded to: SVG Repo, www.svgrepo.com, Transformed by: SVG Repo Mixer Tools -->
<svg fill="#ffffff" height="800px" width="800px" version="1.1" id="Layer_1" xmlns="http://www.w3.org/2000/svg" xmlns:xlink="http://www.w3.org/1999/xlink" viewBox="0 0 512 512" xml:space="preserve" stroke="#ffffff">
<g id="SVGRepo_bgCarrier" stroke-width="0"/>
<g id="SVGRepo_tracerCarrier" stroke-linecap="round" stroke-linejoin="round"/>
<g id="SVGRepo_iconCarrier"> <g> <g> <g> <path d="M256,0C114.848,0,0,114.848,0,256s114.848,256,256,256s256-114.848,256-256S397.152,0,256,0z M256,490.667 C126.603,490.667,21.333,385.397,21.333,256S126.603,21.333,256,21.333S490.667,126.603,490.667,256S385.397,490.667,256,490.667 z"/> <path d="M348.613,163.125c-4.134-3.993-10.687-3.993-14.821,0v0L163.125,333.792c-4.237,4.093-4.354,10.845-0.262,15.083 c4.093,4.237,10.845,4.354,15.083,0.262c0.089-0.086,0.176-0.173,0.262-0.262l170.667-170.667 C352.967,173.971,352.85,167.218,348.613,163.125z"/> <path d="M192,234.667c23.564,0,42.667-19.103,42.667-42.667S215.564,149.333,192,149.333S149.333,168.436,149.333,192 S168.436,234.667,192,234.667z M192,170.667c11.782,0,21.333,9.551,21.333,21.333c0,11.782-9.551,21.333-21.333,21.333 c-11.782,0-21.333-9.551-21.333-21.333C170.667,180.218,180.218,170.667,192,170.667z"/> <path d="M309.333,277.333c-23.564,0-42.667,19.102-42.667,42.667s19.102,42.667,42.667,42.667 C332.898,362.667,352,343.564,352,320S332.898,277.333,309.333,277.333z M309.333,341.333C297.551,341.333,288,331.782,288,320 c0-11.782,9.551-21.333,21.333-21.333c11.782,0,21.333,9.551,21.333,21.333C330.667,331.782,321.115,341.333,309.333,341.333z"/> </g> </g> </g> </g>
</svg>